<?xml version="1.0" encoding="UTF-8"?>
<svg version="1.1" xmlns="http://www.w3.org/2000/svg" width="226" height="145">
<path d="M0 0 C1.01497559 0.48033691 2.02995117 0.96067383 3.07568359 1.45556641 C4.01234863 1.9097998 4.94901367 2.3640332 5.9140625 2.83203125 C6.75146973 3.23784424 7.58887695 3.64365723 8.45166016 4.06176758 C10.375 5.1875 10.375 5.1875 11.375 7.1875 C5.65940484 6.52289591 0.15135169 5.24904902 -5.44140625 3.90625 C-12.20624892 2.37897264 -18.58326009 1.97453743 -25.5 1.9375 C-26.45519531 1.916875 -27.41039063 1.89625 -28.39453125 1.875 C-34.75644901 1.84009236 -41.21091155 2.08212947 -46.18286133 6.60449219 C-48.29596659 9.0290851 -49.60588817 11.1301645 -50.625 14.1875 C-48.645 14.1875 -46.665 14.1875 -44.625 14.1875 C-45.69020602 16.4817899 -46.5706578 18.1331578 -48.375 19.9375 C-49.95161429 22.2490075 -49.95161429 22.2490075 -49.1875 25.5 C-47.16890967 32.2159389 -44.3606088 38.73503141 -41.625 45.1875 C-41.30789062 45.9815625 -40.99078125 46.775625 -40.6640625 47.59375 C-40.32117188 48.1196875 -39.97828125 48.645625 -39.625 49.1875 C-36.06293339 50.00620185 -36.06293339 50.00620185 -32.625 50.1875 C-32.625 51.1775 -32.625 52.1675 -32.625 53.1875 C-33.945 53.1875 -35.265 53.1875 -36.625 53.1875 C-34.40298875 58.87765043 -31.5315019 63.75231409 -28.125 68.8125 C-27.60180176 69.5957666 -27.07860352 70.3790332 -26.53955078 71.18603516 C-22.72267846 76.80299446 -18.6241676 82.06146603 -14.10351562 87.12744141 C-11.82809803 89.68258139 -9.96069278 92.02085757 -8.625 95.1875 C-13.4213988 92.19157309 -17.41462559 88.77230235 -21.5 84.875 C-22.74262391 83.70350817 -23.98610636 82.5329263 -25.23046875 81.36328125 C-26.11484619 80.53111084 -26.11484619 80.53111084 -27.01708984 79.68212891 C-28.90734403 77.92504781 -30.84712098 76.23490327 -32.8125 74.5625 C-38.03017411 70.06762057 -42.79394875 65.0887927 -47.625 60.1875 C-48.62392991 59.18643105 -49.62333749 58.18583472 -50.625 57.1875 C-50.94076418 60.28104432 -50.95289986 61.7341711 -49.09960938 64.29638672 C-48.39642578 64.97975098 -47.69324219 65.66311523 -46.96875 66.3671875 C-46.19273438 67.13160156 -45.41671875 67.89601563 -44.6171875 68.68359375 C-43.79476562 69.46863281 -42.97234375 70.25367187 -42.125 71.0625 C-41.33351562 71.83980469 -40.54203125 72.61710937 -39.7265625 73.41796875 C-35.45516336 77.58433349 -31.07846507 81.59117032 -26.56298828 85.49023438 C-22.54875605 89.00584819 -18.70438501 92.708767 -14.83007812 96.37695312 C-13.88358398 97.26737305 -13.88358398 97.26737305 -12.91796875 98.17578125 C-12.3561792 98.70727783 -11.79438965 99.23877441 -11.21557617 99.78637695 C-9.46802434 101.3887489 -9.46802434 101.3887489 -6.625 103.1875 C-6.955 103.8475 -7.285 104.5075 -7.625 105.1875 C-22.57872934 97.05158039 -35.89060427 87.47270299 -48.625 76.1875 C-49.16511719 75.71054688 -49.70523438 75.23359375 -50.26171875 74.7421875 C-56.43109895 69.26155046 -62.36054121 63.58914552 -68 57.5625 C-68.76050659 56.75401611 -68.76050659 56.75401611 -69.53637695 55.92919922 C-72.54946916 52.6346451 -74.71390097 49.3677889 -76.875 45.4375 C-78.47922852 42.94023747 -79.56468524 41.48260741 -82.47412109 40.67285156 C-87.19514012 39.96118363 -91.86489828 39.99321013 -96.625 40.1875 C-96.56441406 39.41148438 -96.50382812 38.63546875 -96.44140625 37.8359375 C-96.26377149 35.5458155 -96.08957584 33.25542532 -95.91796875 30.96484375 C-95.72821148 28.51824 -95.52343531 26.0727358 -95.30078125 23.62890625 C-94.81012232 17.91304838 -94.58370293 12.58197922 -95.25 6.875 C-95.79965379 1.53550606 -95.39066065 -3.10987846 -92.625 -7.8125 C-90.51171875 -9.55859375 -90.51171875 -9.55859375 -88.625 -10.8125 C-88.57601562 -9.66652344 -88.52703125 -8.52054688 -88.4765625 -7.33984375 C-88.40147199 -5.80987465 -88.32592694 -4.27992782 -88.25 -2.75 C-88.2190625 -1.99783203 -88.188125 -1.24566406 -88.15625 -0.47070312 C-87.90441541 4.37711281 -87.13331635 8.57058043 -85.625 13.1875 C-83.975 13.5175 -82.325 13.8475 -80.625 14.1875 C-80.85316406 13.42566406 -81.08132812 12.66382812 -81.31640625 11.87890625 C-83.56094393 3.81668794 -84.76932781 -2.44137023 -81 -10.125 C-62.41958539 -31.15020601 -19.80186832 -9.37274145 0 0 Z M-83.625 20.1875 C-83.295 21.1775 -82.965 22.1675 -82.625 23.1875 C-80.975 23.1875 -79.325 23.1875 -77.625 23.1875 C-77.7075 24.38375 -77.79 25.58 -77.875 26.8125 C-77.89082416 31.25908886 -76.53094772 33.76873797 -73.625 37.1875 C-72.965 37.1875 -72.305 37.1875 -71.625 37.1875 C-69.3842604 34.52509238 -69.3842604 34.52509238 -69.8359375 32.328125 C-71.46957974 27.89626388 -73.56517647 23.80242426 -76.625 20.1875 C-80.38289481 19.34962879 -80.38289481 19.34962879 -83.625 20.1875 Z M-88.625 30.1875 C-88.625 31.1775 -88.625 32.1675 -88.625 33.1875 C-87.635 32.8575 -86.645 32.5275 -85.625 32.1875 C-85.955 31.5275 -86.285 30.8675 -86.625 30.1875 C-87.285 30.1875 -87.945 30.1875 -88.625 30.1875 Z M-70.625 40.1875 C-69.71566991 41.46359323 -68.79717147 42.73315553 -67.875 44 C-67.10929687 45.06154297 -67.10929687 45.06154297 -66.328125 46.14453125 C-64.60017642 48.21727691 -62.83973524 49.66125854 -60.625 51.1875 C-59.965 50.8575 -59.305 50.5275 -58.625 50.1875 C-58.7796875 51.30125 -58.7796875 51.30125 -58.9375 52.4375 C-58.8995414 55.43822867 -58.8995414 55.43822867 -56.125 57.5 C-55.3 58.056875 -54.475 58.61375 -53.625 59.1875 C-52.32975652 58.09395094 -52.32975652 58.09395094 -52.25 55.4375 C-52.75248313 51.08264618 -54.41761603 50.11598102 -57.625 47.1875 C-59.23580536 45.08045631 -60.77130854 42.93379837 -62.29296875 40.76171875 C-62.73253906 40.24222656 -63.17210937 39.72273438 -63.625 39.1875 C-66.05297311 39.1875 -68.25407005 39.68835685 -70.625 40.1875 Z " fill="#A4C9E8" transform="translate(153.625,38.8125)"/>
<path d="M0 0 C1.01497559 0.48033691 2.02995117 0.96067383 3.07568359 1.45556641 C4.01234863 1.9097998 4.94901367 2.3640332 5.9140625 2.83203125 C6.75146973 3.23784424 7.58887695 3.64365723 8.45166016 4.06176758 C10.375 5.1875 10.375 5.1875 11.375 7.1875 C5.65940484 6.52289591 0.15135169 5.24904902 -5.44140625 3.90625 C-12.20624892 2.37897264 -18.58326009 1.97453743 -25.5 1.9375 C-26.45519531 1.916875 -27.41039062 1.89625 -28.39453125 1.875 C-34.75644901 1.84009236 -41.21091155 2.08212947 -46.18286133 6.60449219 C-48.29596659 9.0290851 -49.60588817 11.1301645 -50.625 14.1875 C-53.16278873 16.92564047 -55.5139356 19.11345707 -58.625 21.1875 C-59.140625 20.218125 -59.65625 19.24875 -60.1875 18.25 C-62.38938296 14.83358309 -62.38938296 14.83358309 -66.375 14.3125 C-67.4475 14.27125 -68.52 14.23 -69.625 14.1875 C-69.18027344 14.93515625 -68.73554687 15.6828125 -68.27734375 16.453125 C-67.71144531 17.43796875 -67.14554688 18.4228125 -66.5625 19.4375 C-65.70978516 20.89929687 -65.70978516 20.89929687 -64.83984375 22.390625 C-63.625 25.1875 -63.625 25.1875 -63.62890625 27.296875 C-65.06052342 30.01414053 -67.16091932 31.41841644 -69.625 33.1875 C-70.79991582 31.42212904 -71.96468684 29.65000287 -73.125 27.875 C-73.7746875 26.88886719 -74.424375 25.90273437 -75.09375 24.88671875 C-76.625 22.1875 -76.625 22.1875 -76.625 19.1875 C-75.965 19.1875 -75.305 19.1875 -74.625 19.1875 C-74.625 17.5375 -74.625 15.8875 -74.625 14.1875 C-76.605 14.1875 -78.585 14.1875 -80.625 14.1875 C-83.22945914 5.49125506 -85.12894588 -1.70830262 -81 -10.125 C-62.41958539 -31.15020601 -19.80186832 -9.37274145 0 0 Z " fill="#A8CFF0" transform="translate(153.625,38.8125)"/>
<path d="M0 0 C0.04898438 1.14597656 0.09796875 2.29195312 0.1484375 3.47265625 C0.22352801 5.00262535 0.29907306 6.53257218 0.375 8.0625 C0.4059375 8.81466797 0.436875 9.56683594 0.46875 10.34179688 C0.72058459 15.18961281 1.49168365 19.38308043 3 24 C6.63 24.33 10.26 24.66 14 25 C14 26.65 14 28.3 14 30 C10.03230578 31.98384711 5.14470514 31.32630565 1 30 C1 31.65 1 33.3 1 35 C3.97 35 6.94 35 10 35 C10 36.65 10 38.3 10 40 C6.92382812 40.29296875 6.92382812 40.29296875 3.84765625 40.5859375 C2.93306641 40.79089844 2.93306641 40.79089844 2 41 C1.67 41.66 1.34 42.32 1 43 C4.3 43.66 7.6 44.32 11 45 C11 46.65 11 48.3 11 50 C7.13276369 51.26582219 3.26848738 51.1118765 -0.75 51.0625 C-1.44738281 51.05798828 -2.14476562 51.05347656 -2.86328125 51.04882812 C-4.57555803 51.0371002 -6.28779033 51.01916653 -8 51 C-7.93941406 50.22398438 -7.87882812 49.44796875 -7.81640625 48.6484375 C-7.63877149 46.3583155 -7.46457584 44.06792532 -7.29296875 41.77734375 C-7.10321148 39.33074 -6.89843531 36.8852358 -6.67578125 34.44140625 C-6.18512232 28.72554838 -5.95870293 23.39447922 -6.625 17.6875 C-7.18987983 12.27044723 -6.58916176 7.83926661 -4 3 C-1.34228188 0 -1.34228188 0 0 0 Z " fill="#092845" transform="translate(65,28)"/>
<path d="M0 0 C4.16513615 3.26456617 6.11795771 5.30479724 6.8125 10.6875 C6.55325524 15.11974915 5.19868537 18.43959106 2.3125 21.8125 C-1.83675283 25.45653292 -6.08535033 26.4583115 -11.5390625 26.20703125 C-14.93228492 25.58391222 -17.09907044 24.02213499 -19.6875 21.8125 C-22.3892494 17.7598759 -22.21667527 14.56667786 -21.6875 9.8125 C-19.80832857 5.21896984 -16.57736112 2.72989584 -12.6875 -0.1875 C-8.21323668 -1.67892111 -4.36835977 -1.93020548 0 0 Z M-12.6875 8.8125 C-14.98387779 11.57145635 -14.98387779 11.57145635 -14.4375 14.375 C-13.84941948 16.96250567 -13.84941948 16.96250567 -11.6875 18.8125 C-8.09338208 19.28129799 -6.33585963 19.25611448 -3.3125 17.1875 C-1.21285547 14.11878876 -1.06689185 12.45857289 -1.6875 8.8125 C-5.87719713 4.62280287 -8.0837762 5.70498644 -12.6875 8.8125 Z " fill="#0B263F" transform="translate(132.6875,53.1875)"/>
<path d="M0 0 C2.75059381 -0.08107646 5.49879021 -0.14052813 8.25 -0.1875 C9.02730469 -0.21263672 9.80460938 -0.23777344 10.60546875 -0.26367188 C14.09044674 -0.30835108 16.37347398 -0.33539305 19.48828125 1.33203125 C21.74007767 3.81657148 21.93370262 5.6851312 22 9 C20.6875 11.625 20.6875 11.625 19 14 C17.53195637 15.85146564 17.53195637 15.85146564 17 18 C18.31668061 21.13343033 18.31668061 21.13343033 20 24 C20 24.66 20 25.32 20 26 C17.03 26 14.06 26 11 26 C9.68 23.36 8.36 20.72 7 18 C6.67 18 6.34 18 6 18 C5.67 20.64 5.34 23.28 5 26 C2.36 26 -0.28 26 -3 26 C-2.39214597 17.26609735 -1.31858334 8.6540033 0 0 Z M7 6 C6.67 7.65 6.34 9.3 6 11 C8.31 11 10.62 11 13 11 C13.59070014 9.05396726 13.59070014 9.05396726 14 7 C12.87465895 5.64381501 12.87465895 5.64381501 9.9375 5.9375 C8.968125 5.958125 7.99875 5.97875 7 6 Z " fill="#0B2841" transform="translate(143,53)"/>
<path d="M0 0 C1.91423658 0.81210037 3.52072017 1.52072017 5 3 C5.144375 4.134375 5.28875 5.26875 5.4375 6.4375 C5.64847551 10.04058997 5.64847551 10.04058997 8 12 C9.00160156 11.690625 10.00320312 11.38125 11.03515625 11.0625 C15.76543178 10.98793408 16.25687744 11.65499658 19.55859375 14.8125 C21.20558721 16.52197021 22.83127802 18.25216512 24.4375 20 C26.05881386 21.71059611 27.68248483 23.41896147 29.30859375 25.125 C30.09838623 25.95942627 30.88817871 26.79385254 31.7019043 27.65356445 C34.36722865 30.37495321 37.16654894 32.86467671 40.06420898 35.33349609 C44.10223324 38.80979242 47.92650645 42.52684502 51.79492188 46.18945312 C52.74141602 47.07987305 52.74141602 47.07987305 53.70703125 47.98828125 C54.2688208 48.51977783 54.83061035 49.05127441 55.40942383 49.59887695 C57.15697566 51.2012489 57.15697566 51.2012489 60 53 C59.505 53.99 59.505 53.99 59 55 C38.73686686 43.97537741 21.68669763 29.82515618 5 14 C4.07832031 13.14792969 3.15664062 12.29585937 2.20703125 11.41796875 C-0.90773299 8.00551023 -1.16694906 5.46818233 -2 1 C-1.34 0.67 -0.68 0.34 0 0 Z " fill="#AACFEE" transform="translate(87,89)"/>
<path d="M0 0 C2.97 0 5.94 0 9 0 C10.17101244 3.95706104 11.33607272 7.91584968 12.5 11.875 C12.83386719 13.00292969 13.16773438 14.13085938 13.51171875 15.29296875 C13.82753906 16.36933594 14.14335937 17.44570312 14.46875 18.5546875 C14.90864258 20.04718018 14.90864258 20.04718018 15.35742188 21.56982422 C16 24 16 24 16 26 C13.36 26 10.72 26 8 26 C7.505 23.525 7.505 23.525 7 21 C5.54052295 21.06006078 4.08220728 21.1488689 2.625 21.25 C1.81289062 21.29640625 1.00078125 21.3428125 0.1640625 21.390625 C-2.18838927 21.7922092 -2.18838927 21.7922092 -3.2890625 24.046875 C-3.52367187 24.69140625 -3.75828125 25.3359375 -4 26 C-6.64 26 -9.28 26 -12 26 C-11.40345974 22.21004025 -10.29932513 19.29643674 -8.49609375 15.91796875 C-8.00302734 14.98662109 -7.50996094 14.05527344 -7.00195312 13.09570312 C-6.48568359 12.13599609 -5.96941406 11.17628906 -5.4375 10.1875 C-4.91736328 9.20845703 -4.39722656 8.22941406 -3.86132812 7.22070312 C-2.57990832 4.8106934 -1.29265289 2.40399781 0 0 Z M3 11 C2.67 11.99 2.34 12.98 2 14 C2.66 14 3.32 14 4 14 C3.67 13.01 3.34 12.02 3 11 Z " fill="#0B2944" transform="translate(178,53)"/>
<path d="M0 0 C2.97 0 5.94 0 9 0 C10.32 4.29 11.64 8.58 13 13 C16.465 6.565 16.465 6.565 20 0 C22.64 0 25.28 0 28 0 C26.37514086 5.67307962 23.70727378 10.63729326 20.9375 15.8125 C20.47794922 16.68326172 20.01839844 17.55402344 19.54492188 18.45117188 C16.1468153 24.8531847 16.1468153 24.8531847 15 26 C12.36 26 9.72 26 7 26 C4.69 17.42 2.38 8.84 0 0 Z " fill="#0C2740" transform="translate(29,53)"/>
<path d="M0 0 C3.25 -0.375 3.25 -0.375 7 0 C9.4375 3 9.4375 3 11 6 C11.804375 5.195625 12.60875 4.39125 13.4375 3.5625 C17 0 17 0 18.84765625 -0.09765625 C20.8984375 -0.06510417 22.94921875 -0.03255208 25 0 C22.90670989 4.70990274 19.71675786 8.46908003 16 12 C17.07949708 14.82330006 18.25033803 17.49104768 19.625 20.1875 C21 23 21 23 21 25 C17.6875 25.3125 17.6875 25.3125 14 25 C12.04421883 22.60259082 11 21.12413392 11 18 C8.35247996 20.57784846 6.05567935 22.91648098 4 26 C0.875 26.1875 0.875 26.1875 -2 26 C-2.33 25.01 -2.66 24.02 -3 23 C-1.6015625 21.09765625 -1.6015625 21.09765625 0.375 19.0625 C3.82278155 15.58335644 3.82278155 15.58335644 5 11 C4.03985622 8.64553828 4.03985622 8.64553828 2.5625 6.375 C0 2.17166213 0 2.17166213 0 0 Z " fill="#0C2D49" transform="translate(84,53)"/>
<path d="M0 0 C-0.33 2.31 -0.66 4.62 -1 7 C-0.01 6.67 0.98 6.34 2 6 C2 4.68 2 3.36 2 2 C2.99 2 3.98 2 5 2 C5.33 3.65 5.66 5.3 6 7 C6.66 6.01 7.32 5.02 8 4 C8.60585937 5.00417969 9.21171875 6.00835937 9.8359375 7.04296875 C17.52013268 19.64089858 25.95565509 31.14200704 36 42 C35.505 42.99 35.505 42.99 35 44 C21.79351236 32.91893147 9.05033371 21.33648939 -3 9 C-3.556875 8.50371094 -4.11375 8.00742188 -4.6875 7.49609375 C-6 6 -6 6 -6.1875 2.8125 C-6.125625 1.884375 -6.06375 0.95625 -6 0 C-6.66 -0.33 -7.32 -0.66 -8 -1 C-3.375 -2.25 -3.375 -2.25 0 0 Z " fill="#ABCFEC" transform="translate(109,90)"/>
<path d="M0 0 C1.32 0 2.64 0 4 0 C4.33 1.32 4.66 2.64 5 4 C6.65 4 8.3 4 10 4 C10.020625 5.11375 10.04125 6.2275 10.0625 7.375 C11.18696184 16.23013698 19.56243375 25.20619037 26 31 C26.99 31 27.98 31 29 31 C29 31.66 29 32.32 29 33 C28.34 33 27.68 33 27 33 C27 35.64 27 38.28 27 41 C26.67 41 26.34 41 26 41 C25.9175 39.88625 25.835 38.7725 25.75 37.625 C25.42126213 33.94246056 25.42126213 33.94246056 22.9375 32.5625 C21.9784375 32.2840625 21.9784375 32.2840625 21 32 C21 33.32 21 34.64 21 36 C20.67 36.66 20.34 37.32 20 38 C14.64407672 32.30568506 9.8980525 26.79015597 6 20 C7.32 20 8.64 20 10 20 C10 18.35 10 16.7 10 15 C7.36 15 4.72 15 2 15 C1.67 13.35 1.34 11.7 1 10 C3.64 10 6.28 10 9 10 C9 8.35 9 6.7 9 5 C6.03 5 3.06 5 0 5 C0 3.35 0 1.7 0 0 Z " fill="#A8CEF1" transform="translate(66,58)"/>
<path d="M0 0 C0.33 0 0.66 0 1 0 C1.04898438 1.134375 1.09796875 2.26875 1.1484375 3.4375 C1.2235414 4.95835398 1.29908584 6.47918625 1.375 8 C1.4059375 8.74378906 1.436875 9.48757812 1.46875 10.25390625 C1.73753793 15.40567483 2.61063884 20.02992756 4 25 C1.36 25 -1.28 25 -4 25 C-6.31213141 18.87965215 -6.36816252 13.40723997 -5 7 C-3.73367002 4.2704736 -2.14032741 2.14032741 0 0 Z " fill="#ABD1EE" transform="translate(64,28)"/>
<path d="M0 0 C2.01696222 3.02544334 2.25811096 3.61067382 2.1875 7 C2.18105469 7.680625 2.17460938 8.36125 2.16796875 9.0625 C2 11 2 11 1 14 C1.66 14.33 2.32 14.66 3 15 C3.33 13.02 3.66 11.04 4 9 C4.33 9 4.66 9 5 9 C5 10.98 5 12.96 5 15 C6.32 15.33 7.64 15.66 9 16 C9 15.34 9 14.68 9 14 C11.64 14 14.28 14 17 14 C17 15.32 17 16.64 17 18 C13.13276369 19.26582219 9.26848738 19.1118765 5.25 19.0625 C4.55261719 19.05798828 3.85523438 19.05347656 3.13671875 19.04882812 C1.42444197 19.0371002 -0.28779033 19.01916653 -2 19 C-1.85761163 16.95809019 -1.71092972 14.91647955 -1.5625 12.875 C-1.48128906 11.73804687 -1.40007813 10.60109375 -1.31640625 9.4296875 C-1.02269035 6.2459522 -0.56875687 3.14489093 0 0 Z " fill="#0B243B" transform="translate(59,60)"/>
<path d="M0 0 C1.32 0 2.64 0 4 0 C4.33 1.32 4.66 2.64 5 4 C6.65 4 8.3 4 10 4 C10.061875 5.155 10.12375 6.31 10.1875 7.5 C10.77618982 12.49494394 13.10663093 15.98558388 16 20 C15.34 20.33 14.68 20.66 14 21 C13.34 20.01 12.68 19.02 12 18 C11.67 18.99 11.34 19.98 11 21 C8.9375 21.6875 8.9375 21.6875 7 22 C6.67 21.34 6.34 20.68 6 20 C7.32 20 8.64 20 10 20 C10 18.35 10 16.7 10 15 C7.36 15 4.72 15 2 15 C1.67 13.35 1.34 11.7 1 10 C3.64 10 6.28 10 9 10 C9 8.35 9 6.7 9 5 C6.03 5 3.06 5 0 5 C0 3.35 0 1.7 0 0 Z " fill="#90B5D2" transform="translate(66,58)"/>
<path d="M0 0 C3.73639216 1.24546405 4.18756513 2.63404953 6 6 C6.66 4.02 7.32 2.04 8 0 C8.99 0 9.98 0 11 0 C10.85915204 1.79206547 10.71216299 3.58364917 10.5625 5.375 C10.48128906 6.37273437 10.40007812 7.37046875 10.31640625 8.3984375 C10 11 10 11 9 13 C8.01 13 7.02 13 6 13 C4.02 9.535 4.02 9.535 2 6 C1.67 8.31 1.34 10.62 1 13 C0.01 13 -0.98 13 -2 13 C-1.85966889 11.02043559 -1.7125877 9.04134859 -1.5625 7.0625 C-1.48128906 5.96035156 -1.40007812 4.85820313 -1.31640625 3.72265625 C-1 1 -1 1 0 0 Z " fill="#15283C" transform="translate(157,89)"/>
<path d="M0 0 C2.0546875 -0.3984375 2.0546875 -0.3984375 5 0 C7.62902873 1.86037851 9.84929117 4.10408214 12.125 6.375 C13.35518889 7.57194054 14.58690328 8.76731568 15.8203125 9.9609375 C16.62879639 10.76217041 16.62879639 10.76217041 17.45361328 11.57958984 C19.15138192 13.21238869 19.15138192 13.21238869 22 15 C21.67 15.66 21.34 16.32 21 17 C18.79007241 15.7527532 16.58206337 14.50229753 14.375 13.25 C13.75753906 12.90195313 13.14007813 12.55390625 12.50390625 12.1953125 C1.25491019 5.80114632 1.25491019 5.80114632 0.125 2.25 C0.08375 1.5075 0.0425 0.765 0 0 Z " fill="#AACEEB" transform="translate(125,127)"/>
<path d="M0 0 C3 1 3 1 4.16796875 3.1875 C6.43044252 9.42880694 7.43507999 14.36503019 7 21 C5.68 21.33 4.36 21.66 3 22 C3 21.01 3 20.02 3 19 C1.02 18.67 -0.96 18.34 -3 18 C-3 17.67 -3 17.34 -3 17 C-0.36 17 2.28 17 5 17 C4.47148438 16.19175781 3.94296875 15.38351563 3.3984375 14.55078125 C2.73070313 13.48214844 2.06296875 12.41351563 1.375 11.3125 C0.70210938 10.25675781 0.02921875 9.20101562 -0.6640625 8.11328125 C-2 5 -2 5 -1.2109375 2.10546875 C-0.81132813 1.41066406 -0.41171875 0.71585938 0 0 Z " fill="#9CC2E2" transform="translate(101,62)"/>
<path d="M0 0 C2.75 1 2.75 1 4.75 4 C4.55464992 7.1256012 4.2912935 9.25249945 2.4375 11.8125 C0.40801471 13.24065632 -0.75520579 13.8532474 -3.25 14 C-5.49356294 12.85213059 -7.4595767 11.7904233 -9.25 10 C-9.6875 7.75 -9.6875 7.75 -9.25 5 C-6.20684773 1.66702371 -4.60220016 0 0 0 Z M-6.25 5 C-6.41687448 7.58354218 -6.41687448 7.58354218 -6.25 10 C-3.89632287 10.6878236 -3.89632287 10.6878236 -1.25 11 C-0.26 10.34 0.73 9.68 1.75 9 C2.08343551 6.45792029 2.08343551 6.45792029 1.75 4 C0.69689723 2.72996677 0.69689723 2.72996677 -1.6875 2.8125 C-4.41734675 2.73160017 -4.41734675 2.73160017 -6.25 5 Z " fill="#1D2D3C" transform="translate(65.25,89)"/>
<path d="M0 0 C1.11375 0.3403125 1.11375 0.3403125 2.25 0.6875 C2.58 2.0075 2.91 3.3275 3.25 4.6875 C2.26 5.1825 2.26 5.1825 1.25 5.6875 C1.91 7.0075 2.57 8.3275 3.25 9.6875 C1.25 12.6875 1.25 12.6875 -0.5625 13.5625 C-3.70366995 13.74199543 -5.28251096 12.53811678 -7.75 10.6875 C-7.75 8.6875 -7.75 8.6875 -5.75 6.6875 C-6.0685177 4.57929203 -6.0685177 4.57929203 -6.75 2.6875 C-4.29511132 0.41445492 -3.41240272 -0.38777304 0 0 Z M-3.75 2.6875 C-3.75 3.3475 -3.75 4.0075 -3.75 4.6875 C-2.43 4.0275 -1.11 3.3675 0.25 2.6875 C-1.07 2.6875 -2.39 2.6875 -3.75 2.6875 Z M-4.75 7.6875 C-4.42 8.6775 -4.09 9.6675 -3.75 10.6875 C-2.43 10.3575 -1.11 10.0275 0.25 9.6875 C-0.08 9.0275 -0.41 8.3675 -0.75 7.6875 C-2.07 7.6875 -3.39 7.6875 -4.75 7.6875 Z " fill="#192B40" transform="translate(46.75,89.3125)"/>
<path d="M0 0 C2 2 2 2 2.375 5.4375 C2 9 2 9 0.25 10.875 C-2.87029303 12.43514651 -4.71840834 13.29293524 -8.1875 12.5 C-10 11 -10 11 -10.9375 7.625 C-11 4 -11 4 -9.75 1.625 C-6.52162991 -1.37277222 -4.01825894 -1.13335509 0 0 Z M-6 2 C-8.28728734 3.83883881 -8.28728734 3.83883881 -8.125 6.625 C-8.08375 7.40875 -8.0425 8.1925 -8 9 C-5.65466049 9.76956136 -5.65466049 9.76956136 -3 10 C-1.01970318 8.93654948 -1.01970318 8.93654948 0 7 C-0.22757731 4.83700789 -0.22757731 4.83700789 -1 3 C-3.39719432 2.32041397 -3.39719432 2.32041397 -6 2 Z " fill="#192C3E" transform="translate(147,90)"/>
<path d="M0 0 C1.25 2.0625 1.25 2.0625 2 4 C1.01 4.495 1.01 4.495 0 5 C0.20625 5.78375 0.4125 6.5675 0.625 7.375 C0.74875 8.24125 0.8725 9.1075 1 10 C-1 12 -1 12 -4.125 12.125 C-5.07375 12.08375 -6.0225 12.0425 -7 12 C-7.66 10.68 -8.32 9.36 -9 8 C-8.34 7.34 -7.68 6.68 -7 6 C-7.29369827 4.65737935 -7.6278958 3.32303717 -8 2 C-6.2157448 -1.56851039 -3.3149613 -1.39014506 0 0 Z M-5 2 C-4.67 2.66 -4.34 3.32 -4 4 C-3.01 3.34 -2.02 2.68 -1 2 C-2.32 2 -3.64 2 -5 2 Z M-6 7 C-6 7.99 -6 8.98 -6 10 C-4.35 9.67 -2.7 9.34 -1 9 C-1.33 8.34 -1.66 7.68 -2 7 C-3.32 7 -4.64 7 -6 7 Z " fill="#202E3D" transform="translate(182,90)"/>
<path d="M0 0 C0.33 0 0.66 0 1 0 C1.62029355 8.2188896 1.62029355 8.2188896 -0.6875 11.125 C-3.56245238 12.21281982 -5.10512213 11.93887931 -8 11 C-9 10 -9 10 -9.09765625 7.93359375 C-9.08605469 7.10988281 -9.07445313 6.28617187 -9.0625 5.4375 C-9.05347656 4.61121094 -9.04445313 3.78492187 -9.03515625 2.93359375 C-9.02355469 2.29550781 -9.01195313 1.65742187 -9 1 C-8.34 1 -7.68 1 -7 1 C-5.98133771 2.65532623 -4.98189187 4.32260138 -4 6 C-3.34 6.33 -2.68 6.66 -2 7 C-1.34 4.69 -0.68 2.38 0 0 Z " fill="#334D62" transform="translate(102,90)"/>
<path d="M0 0 C2 1 2 1 3 3 C3.556875 3.9590625 3.556875 3.9590625 4.125 4.9375 C5 7 5 7 4 10 C7.3 10.66 10.6 11.32 14 12 C14 12.33 14 12.66 14 13 C11.36 13 8.72 13 6 13 C6 13.66 6 14.32 6 15 C4.0625 14.625 4.0625 14.625 2 14 C1.67 13.34 1.34 12.68 1 12 C0.67 12.66 0.34 13.32 0 14 C-0.99 13.67 -1.98 13.34 -3 13 C-2.01 8.71 -1.02 4.42 0 0 Z " fill="#092C48" transform="translate(62,61)"/>
<path d="M0 0 C3.86724404 0.53711723 5.96561775 1.59342098 9 4 C9.66 4 10.32 4 11 4 C11 4.66 11 5.32 11 6 C10.34 6 9.68 6 9 6 C9 8.64 9 11.28 9 14 C8.67 14 8.34 14 8 14 C7.9175 12.88625 7.835 11.7725 7.75 10.625 C7.42126213 6.94246056 7.42126213 6.94246056 4.9375 5.5625 C4.298125 5.376875 3.65875 5.19125 3 5 C3 6.32 3 7.64 3 9 C2.67 9.66 2.34 10.32 2 11 C-0.5 8.6875 -0.5 8.6875 -3 6 C-3 5.01 -3 4.02 -3 3 C-2.34 3 -1.68 3 -1 3 C-0.67 2.01 -0.34 1.02 0 0 Z " fill="#A0C1DF" transform="translate(84,85)"/>
<path d="M0 0 C2.62697064 -0.22137393 5.00893964 -0.28162025 7.625 -0.1875 C8.33140625 -0.17396484 9.0378125 -0.16042969 9.765625 -0.14648438 C11.51074128 -0.1111104 13.25546608 -0.05730221 15 0 C14.67 0.66 14.34 1.32 14 2 C11.7058459 2.31426769 9.44226779 2.37924576 7.12890625 2.4609375 C4.80573801 2.7889605 4.80573801 2.7889605 3.71484375 5.0390625 C3.47894531 5.68617187 3.24304688 6.33328125 3 7 C0.36 7 -2.28 7 -5 7 C-4.67 5.68 -4.34 4.36 -4 3 C-3.34 3 -2.68 3 -2 3 C-1.34 2.01 -0.68 1.02 0 0 Z " fill="#07233D" transform="translate(171,72)"/>
<path d="M0 0 C0.99 0.66 1.98 1.32 3 2 C3 2.66 3 3.32 3 4 C3.66 4.33 4.32 4.66 5 5 C3.375 7.5 3.375 7.5 1 10 C-2.25 10.3125 -2.25 10.3125 -5 10 C-5.33 9.01 -5.66 8.02 -6 7 C-4.78515625 5.17578125 -4.78515625 5.17578125 -3.0625 3.3125 C-2.49660156 2.68988281 -1.93070312 2.06726563 -1.34765625 1.42578125 C-0.90292969 0.95527344 -0.45820312 0.48476562 0 0 Z " fill="#142E44" transform="translate(87,69)"/>
<path d="M0 0 C5.09210286 3.56320845 9.22660027 7.04741286 13 12 C11.68 12 10.36 12 9 12 C9.66 13.32 10.32 14.64 11 16 C7.06326356 14.68775452 4.77280706 13.08089673 2 10 C3.32 10.33 4.64 10.66 6 11 C6 10.01 6 9.02 6 8 C5.01 7.67 4.02 7.34 3 7 C3 6.01 3 5.02 3 4 C1.68 3.67 0.36 3.34 -1 3 C-0.67 2.01 -0.34 1.02 0 0 Z " fill="#B3D3EC" transform="translate(116,115)"/>
<path d="M0 0 C0.99 0 1.98 0 3 0 C3.33 1.65 3.66 3.3 4 5 C2.824375 5.2165625 2.824375 5.2165625 1.625 5.4375 C-0.96421018 5.87798925 -0.96421018 5.87798925 -3 7 C-4.49756871 7.09499503 -5.99942932 7.12987198 -7.5 7.125 C-8.2940625 7.12757812 -9.088125 7.13015625 -9.90625 7.1328125 C-12 7 -12 7 -14 6 C-13.67 5.01 -13.34 4.02 -13 3 C-11.96939453 3.05220703 -11.96939453 3.05220703 -10.91796875 3.10546875 C-10.01691406 3.13253906 -9.11585937 3.15960938 -8.1875 3.1875 C-7.29417969 3.22230469 -6.40085937 3.25710937 -5.48046875 3.29296875 C-2.51889779 2.9431769 -1.95250396 2.13153011 0 0 Z " fill="#0E2E4B" transform="translate(131,70)"/>
<path d="M0 0 C0 4 0 4 -2.3125 6.625 C-5 9 -5 9 -8 11 C-8.99 9.02 -9.98 7.04 -11 5 C-10.01 4.34 -9.02 3.68 -8 3 C-7.67 2.34 -7.34 1.68 -7 1 C-4.61370553 0.38812962 -2.46459429 0 0 0 Z " fill="#A1C8EA" transform="translate(103,49)"/>
<path d="M0 0 C2.20665404 3.30998105 2.78262095 5.82021436 3.625 9.6875 C3.88539063 10.86699219 4.14578125 12.04648438 4.4140625 13.26171875 C4.60742188 14.16535156 4.80078125 15.06898437 5 16 C2.36 16 -0.28 16 -3 16 C-3.33 14.35 -3.66 12.7 -4 11 C-3.34 11 -2.68 11 -2 11 C-2 11.99 -2 12.98 -2 14 C-0.68 13.34 0.64 12.68 2 12 C1.505 11.113125 1.01 10.22625 0.5 9.3125 C-0.94517417 6.12107371 -1.39131685 4.42402241 -1 1 C-0.67 0.67 -0.34 0.34 0 0 Z " fill="#0C2136" transform="translate(189,63)"/>
<path d="M0 0 C2.46742938 2.89654753 3.80250247 5.14879822 4 9 C2.5625 10.8125 2.5625 10.8125 1 12 C0.01 11.67 -0.98 11.34 -2 11 C-3.1875 8.4375 -3.1875 8.4375 -4 6 C-3.525625 5.566875 -3.05125 5.13375 -2.5625 4.6875 C-0.76313043 2.97690387 -0.76313043 2.97690387 0 0 Z " fill="#A1C7E9" transform="translate(86,58)"/>
<path d="M0 0 C2.375 -0.125 2.375 -0.125 5 0 C5.66 0.66 6.32 1.32 7 2 C7.66 1.67 8.32 1.34 9 1 C9.33 2.32 9.66 3.64 10 5 C9.01 5 8.02 5 7 5 C6.67 6.32 6.34 7.64 6 9 C4 8 4 8 3 5 C2.34 5 1.68 5 1 5 C1 4.34 1 3.68 1 3 C0.01 2.67 -0.98 2.34 -2 2 C-1.34 2 -0.68 2 0 2 C0 1.34 0 0.68 0 0 Z " fill="#11314D" transform="translate(155,55)"/>
<path d="M0 0 C0.33 0 0.66 0 1 0 C1.125 7.625 1.125 7.625 0 11 C2.31 11 4.62 11 7 11 C7 11.66 7 12.32 7 13 C3.7 13 0.4 13 -3 13 C-2.25 3.375 -2.25 3.375 0 0 Z " fill="#1F3040" transform="translate(78,89)"/>
<path d="M0 0 C2.78799769 -0.4745528 4.29594622 -0.66621615 7 0 C10.29535144 2.37765863 13.15278158 5.10758763 16 8 C15.67 8.66 15.34 9.32 15 10 C12.68367725 8.71481447 10.37203058 7.42228734 8.0625 6.125 C7.0734668 5.57779297 7.0734668 5.57779297 6.06445312 5.01953125 C1.11328125 2.2265625 1.11328125 2.2265625 0 0 Z " fill="#AAC3E0" transform="translate(131,134)"/>
<path d="M0 0 C1.32 0 2.64 0 4 0 C4.33 1.32 4.66 2.64 5 4 C6.65 4 8.3 4 10 4 C10 6.31 10 8.62 10 11 C7.36 11 4.72 11 2 11 C1.67 11.66 1.34 12.32 1 13 C1 12.01 1 11.02 1 10 C3.64 10 6.28 10 9 10 C9 8.35 9 6.7 9 5 C6.03 5 3.06 5 0 5 C0 3.35 0 1.7 0 0 Z " fill="#7392AD" transform="translate(66,58)"/>
<path d="M0 0 C1.98 0.66 3.96 1.32 6 2 C5.01 3.485 5.01 3.485 4 5 C3.34 4.34 2.68 3.68 2 3 C1.01 5.97 0.02 8.94 -1 12 C-1.99 12 -2.98 12 -4 12 C-4.33 10.68 -4.66 9.36 -5 8 C-4.01 7.34 -3.02 6.68 -2 6 C-0.78715124 2.94570927 -0.78715124 2.94570927 0 0 Z " fill="#11304C" transform="translate(45,64)"/>
<path d="M0 0 C2.96525275 4.44787913 3 8.73398395 3 14 C1.68 14.33 0.36 14.66 -1 15 C-1 14.01 -1 13.02 -1 12 C-3.97 11.505 -3.97 11.505 -7 11 C-7 10.67 -7 10.34 -7 10 C-4.36 10 -1.72 10 1 10 C0.67 9.34 0.34 8.68 0 8 C-0.13415472 5.3276379 -0.04318541 2.67749512 0 0 Z " fill="#ADD3F1" transform="translate(105,69)"/>
<path d="M0 0 C1.051875 0.309375 2.10375 0.61875 3.1875 0.9375 C6.12752396 1.75685094 9.00161623 2.45483931 12 3 C12 3.33 12 3.66 12 4 C11.01257813 4.03738281 10.02515625 4.07476562 9.0078125 4.11328125 C7.08582031 4.21189453 7.08582031 4.21189453 5.125 4.3125 C3.84882813 4.37050781 2.57265625 4.42851563 1.2578125 4.48828125 C0.18273437 4.65714844 -0.89234375 4.82601562 -2 5 C-2.99 6.485 -2.99 6.485 -4 8 C-4.66 7.34 -5.32 6.68 -6 6 C-4.71034824 4.62437146 -3.37310707 3.29233607 -2 2 C-1.34 2 -0.68 2 0 2 C0 1.34 0 0.68 0 0 Z " fill="#16334F" transform="translate(173,68)"/>
<path d="M0 0 C6.27 0 12.54 0 19 0 C19 0.33 19 0.66 19 1 C18.21753906 1.04898438 17.43507813 1.09796875 16.62890625 1.1484375 C15.61699219 1.22320312 14.60507813 1.29796875 13.5625 1.375 C12.55316406 1.44460937 11.54382813 1.51421875 10.50390625 1.5859375 C9.67761719 1.72257812 8.85132812 1.85921875 8 2 C7.67 2.66 7.34 3.32 7 4 C6.34 4 5.68 4 5 4 C5.33 5.98 5.66 7.96 6 10 C5.67 9.01 5.34 8.02 5 7 C4.01 6.67 3.02 6.34 2 6 C2 4.68 2 3.36 2 2 C1.34 2 0.68 2 0 2 C0 1.34 0 0.68 0 0 Z " fill="#173653" transform="translate(60,53)"/>
<path d="M0 0 C0.66 0.99 1.32 1.98 2 3 C2.66 3 3.32 3 4 3 C4 3.66 4 4.32 4 5 C4.99 5 5.98 5 7 5 C6.67 5.99 6.34 6.98 6 8 C5.67 7.67 5.34 7.34 5 7 C4.34 8.98 3.68 10.96 3 13 C2.34 12.67 1.68 12.34 1 12 C-1.38056989 4.35711773 -1.38056989 4.35711773 0 0 Z " fill="#14304C" transform="translate(143,55)"/>
<path d="M0 0 C3.96 1.98 7.92 3.96 12 6 C7.81229899 7.04692525 6.67828787 6.85469996 2.75 5.5625 C1.85796875 5.27503906 0.9659375 4.98757812 0.046875 4.69140625 C-0.62859375 4.46324219 -1.3040625 4.23507813 -2 4 C-2 3.34 -2 2.68 -2 2 C-1.34 2 -0.68 2 0 2 C0 1.34 0 0.68 0 0 Z " fill="#ACC2DF" transform="translate(153,39)"/>
<path d="M0 0 C-4.625 4 -4.625 4 -8 4 C-8.12117188 4.63808594 -8.24234375 5.27617187 -8.3671875 5.93359375 C-8.53476563 6.75988281 -8.70234375 7.58617187 -8.875 8.4375 C-9.03742188 9.26121094 -9.19984375 10.08492187 -9.3671875 10.93359375 C-9.57601562 11.61550781 -9.78484375 12.29742187 -10 13 C-10.99 13.495 -10.99 13.495 -12 14 C-11.06562402 8.35686085 -10.186918 4.186918 -6 0 C-3.50907189 -1.24546405 -2.58919267 -0.7767578 0 0 Z " fill="#AECCE5" transform="translate(82,25)"/>
<path d="M0 0 C0.99 0 1.98 0 3 0 C3 0.66 3 1.32 3 2 C4.32 2.33 5.64 2.66 7 3 C7 4.32 7 5.64 7 7 C6.34 7.66 5.68 8.32 5 9 C2.5 7.3125 2.5 7.3125 0 5 C-0.3125 2.25 -0.3125 2.25 0 0 Z " fill="#AAD2EF" transform="translate(121,109)"/>
<path d="M0 0 C0.99 0.33 1.98 0.66 3 1 C3 2.32 3 3.64 3 5 C2.34 5 1.68 5 1 5 C1 7.64 1 10.28 1 13 C0.01 13 -0.98 13 -2 13 C-1.85966889 11.02043559 -1.7125877 9.04134859 -1.5625 7.0625 C-1.48128906 5.96035156 -1.40007812 4.85820313 -1.31640625 3.72265625 C-1 1 -1 1 0 0 Z " fill="#243649" transform="translate(157,89)"/>
<path d="M0 0 C0.66 0.33 1.32 0.66 2 1 C1.38125 2.0725 0.7625 3.145 0.125 4.25 C-1.3323679 6.79780984 -2.72924491 9.35259355 -4 12 C-4.66 12 -5.32 12 -6 12 C-6.8125 9.875 -6.8125 9.875 -7 7 C-3.13432836 1.56716418 -3.13432836 1.56716418 0 0 Z " fill="#092C4B" transform="translate(119,56)"/>
<path d="M0 0 C0.66 0 1.32 0 2 0 C2.07654536 4.51617599 2.10228696 8.59085217 1 13 C0.01 13 -0.98 13 -2 13 C-1.85915204 11.20793453 -1.71216299 9.41635083 -1.5625 7.625 C-1.48128906 6.62726563 -1.40007812 5.62953125 -1.31640625 4.6015625 C-1 2 -1 2 0 0 Z " fill="#2C3C49" transform="translate(128,89)"/>
<path d="M0 0 C1.7074998 1.28062485 3.37373596 2.61767557 5 4 C5 4.66 5 5.32 5 6 C4.01 6.33 3.02 6.66 2 7 C1.67 7.66 1.34 8.32 1 9 C0.34 9 -0.32 9 -1 9 C-1.33 9.66 -1.66 10.32 -2 11 C-2.6875 9.25 -2.6875 9.25 -3 7 C-2.04701223 5.63266972 -1.04625409 4.29735507 0 3 C0 2.01 0 1.02 0 0 Z " fill="#A5C8E9" transform="translate(82,79)"/>
<path d="M0 0 C0.66 0.33 1.32 0.66 2 1 C2 1.66 2 2.32 2 3 C2.99 3.33 3.98 3.66 5 4 C1.25 6 1.25 6 -1 6 C-1.33 6.99 -1.66 7.98 -2 9 C-3.32 9 -4.64 9 -6 9 C-6 8.01 -6 7.02 -6 6 C-5.01 6.495 -5.01 6.495 -4 7 C-4 5.68 -4 4.36 -4 3 C-3.01 2.67 -2.02 2.34 -1 2 C-0.67 1.34 -0.34 0.68 0 0 Z " fill="#1B3850" transform="translate(185,59)"/>
<path d="M0 0 C1.25 2.0625 1.25 2.0625 2 4 C1.01 4 0.02 4 -1 4 C-1 3.34 -1 2.68 -1 2 C-2.94074861 2.27617533 -2.94074861 2.27617533 -5 3 C-5.66 3.99 -6.32 4.98 -7 6 C-8.125 2.25 -8.125 2.25 -7 0 C-3.87438528 -1.04187157 -2.95319818 -1.23843794 0 0 Z " fill="#1F2D3E" transform="translate(182,90)"/>
<path d="M0 0 C1.5 1.3125 1.5 1.3125 3 3 C3 3.99 3 4.98 3 6 C0.36 6 -2.28 6 -5 6 C-5 4.35 -5 2.7 -5 1 C-3.68 1.33 -2.36 1.66 -1 2 C-0.67 1.34 -0.34 0.68 0 0 Z " fill="#1A2F44" transform="translate(145,73)"/>
<path d="M0 0 C0 0.99 0 1.98 0 3 C-1.32 3 -2.64 3 -4 3 C-4.66 5.97 -5.32 8.94 -6 12 C-6.33 12 -6.66 12 -7 12 C-6.67 8.7 -6.34 5.4 -6 2 C-7.32 1.67 -8.64 1.34 -10 1 C-3.375 0 -3.375 0 0 0 Z " fill="#33495D" transform="translate(121,89)"/>
<path d="M0 0 C1.485 0.99 1.485 0.99 3 2 C2.67 2.66 2.34 3.32 2 4 C5.3 4.66 8.6 5.32 12 6 C12 6.33 12 6.66 12 7 C9.36 7 6.72 7 4 7 C4 7.66 4 8.32 4 9 C2.68 8.67 1.36 8.34 0 8 C-0.38063221 5.6739143 -0.71269945 3.33944736 -1 1 C-0.67 0.67 -0.34 0.34 0 0 Z " fill="#1F3F58" transform="translate(64,67)"/>
<path d="M0 0 C2.475 0.99 2.475 0.99 5 2 C5 3.65 5 5.3 5 7 C4.67 5.68 4.34 4.36 4 3 C3.01 3 2.02 3 1 3 C1.33 4.98 1.66 6.96 2 9 C0.68 8.67 -0.64 8.34 -2 8 C-1.125 1.125 -1.125 1.125 0 0 Z " fill="#9FC2E1" transform="translate(110,89)"/>
<path d="M0 0 C1.32 0.66 2.64 1.32 4 2 C0.535 3.485 0.535 3.485 -3 5 C-3 5.66 -3 6.32 -3 7 C-5.5 8.625 -5.5 8.625 -8 10 C-7.44449305 6.40094092 -6.25112752 5.00090201 -3.4375 2.75 C-2.79683594 2.22921875 -2.15617187 1.7084375 -1.49609375 1.171875 C-1.00238281 0.78515625 -0.50867188 0.3984375 0 0 Z " fill="#0E2336" transform="translate(120,53)"/>
<path d="M0 0 C0.66 0 1.32 0 2 0 C0.69101267 4.22903599 -0.77005563 8.16449568 -3 12 C-3.99 12.33 -4.98 12.66 -6 13 C-4.58707905 8.1725201 -2.57025846 4.2837641 0 0 Z " fill="#0D2338" transform="translate(176,58)"/>
<path d="M0 0 C0.33 0 0.66 0 1 0 C1.28571429 7.42857143 1.28571429 7.42857143 -1 11 C-1 10.01 -1 9.02 -1 8 C-1.66 7.67 -2.32 7.34 -3 7 C-3.33 6.34 -3.66 5.68 -4 5 C-2.69254251 3.31295807 -1.35827971 1.64639965 0 0 Z " fill="#ADC8E2" transform="translate(64,28)"/>
<path d="M0 0 C0.66 0.66 1.32 1.32 2 2 C4.58354218 2.16687448 4.58354218 2.16687448 7 2 C7 2.99 7 3.98 7 5 C5.3125 5.6875 5.3125 5.6875 3 6 C0.25 4.6875 0.25 4.6875 -2 3 C-2 2.34 -2 1.68 -2 1 C-1.34 0.67 -0.68 0.34 0 0 Z " fill="#394754" transform="translate(41,97)"/>
<path d="M0 0 C0.99 0.66 1.98 1.32 3 2 C3 2.66 3 3.32 3 4 C3.66 4.33 4.32 4.66 5 5 C2 7 2 7 -1 7 C-1.66 5.68 -2.32 4.36 -3 3 C-2.01 2.01 -1.02 1.02 0 0 Z " fill="#123755" transform="translate(87,69)"/>
<path d="M0 0 C1.98 1.65 3.96 3.3 6 5 C5.67 5.66 5.34 6.32 5 7 C3.35 6.67 1.7 6.34 0 6 C0 4.02 0 2.04 0 0 Z " fill="#8EACC5" transform="translate(94,93)"/>
<path d="M0 0 C1.1446875 0.2475 1.1446875 0.2475 2.3125 0.5 C5.03596236 1.09145396 5.03596236 1.09145396 8 1 C8.33 1.99 8.66 2.98 9 4 C6.36 4 3.72 4 1 4 C0.67 2.68 0.34 1.36 0 0 Z " fill="#9FC1DE" transform="translate(59,49)"/>
<path d="M0 0 C3.00617269 3.00617269 2.59585316 5.82381598 3 10 C2.01 9.67 1.02 9.34 0 9 C-1.125 2.25 -1.125 2.25 0 0 Z " fill="#162432" transform="translate(137,92)"/>
<path d="M0 0 C0.66 0.66 1.32 1.32 2 2 C1.69972883 3.67293936 1.36442233 5.33985384 1 7 C1.33 7.99 1.66 8.98 2 10 C1.01 10 0.02 10 -1 10 C-2.1875 7.25 -2.1875 7.25 -3 4 C-1.625 1.625 -1.625 1.625 0 0 Z " fill="#0B2437" transform="translate(118,61)"/>
<path d="M0 0 C2.00841268 0.01421885 4.01537247 0.13420475 6.01953125 0.265625 C5.68953125 0.925625 5.35953125 1.585625 5.01953125 2.265625 C4.35953125 1.935625 3.69953125 1.605625 3.01953125 1.265625 C2.68953125 1.925625 2.35953125 2.585625 2.01953125 3.265625 C-0.30203472 3.67291728 -2.63734745 4.01001177 -4.98046875 4.265625 C-3.72152968 1.74774686 -2.88459378 0.38688832 0 0 Z " fill="#17334C" transform="translate(102.98046875,52.734375)"/>
<path d="M0 0 C0.66 0 1.32 0 2 0 C2 0.66 2 1.32 2 2 C2.94875 1.814375 3.8975 1.62875 4.875 1.4375 C8 1 8 1 10 2 C10 2.66 10 3.32 10 4 C7.03 4 4.06 4 1 4 C0.67 2.68 0.34 1.36 0 0 Z " fill="#112238" transform="translate(153,75)"/>
<path d="M0 0 C0.680625 0.165 1.36125 0.33 2.0625 0.5 C5.4164822 1.07089059 8.60389805 1.06659023 12 1 C11.67 1.66 11.34 2.32 11 3 C7.37 3 3.74 3 0 3 C0 2.01 0 1.02 0 0 Z " fill="#0E2C46" transform="translate(63,74)"/>
<path d="M0 0 C0.33 0 0.66 0 1 0 C1 1.65 1 3.3 1 5 C-2.3 5 -5.6 5 -9 5 C-6.6875 2.9375 -6.6875 2.9375 -4 1 C-3.01 1.33 -2.02 1.66 -1 2 C-1.99 2.495 -1.99 2.495 -3 3 C-2.01 3.33 -1.02 3.66 0 4 C0 2.68 0 1.36 0 0 Z " fill="#052440" transform="translate(74,63)"/>
<path d="M0 0 C0.99 0.66 1.98 1.32 3 2 C0.37801226 4.15377564 -1.64404172 5.40072174 -5 6 C-5.33 5.01 -5.66 4.02 -6 3 C-5.195625 2.690625 -4.39125 2.38125 -3.5625 2.0625 C-1.10919595 1.23664655 -1.10919595 1.23664655 0 0 Z " fill="#2B3846" transform="translate(146,97)"/>
<path d="M0 0 C2.5 1.375 2.5 1.375 5 3 C5 3.66 5 4.32 5 5 C2.69 5 0.38 5 -2 5 C-1.34 3.35 -0.68 1.7 0 0 Z " fill="#052846" transform="translate(100,73)"/>
<path d="M0 0 C0.99 0.495 0.99 0.495 2 1 C3.1577506 4.47325181 3.06866652 7.36067448 3 11 C1.5 10 1.5 10 0 8 C-0.27345479 5.28153765 -0.13491285 2.74322801 0 0 Z " fill="#0D2437" transform="translate(38,60)"/>
<path d="M0 0 C0.99 0 1.98 0 3 0 C1.83857315 4.35535069 0.92300495 6.64619703 -3 9 C-3.66 8.34 -4.32 7.68 -5 7 C-4.01 6.67 -3.02 6.34 -2 6 C-0.77479736 2.99152582 -0.77479736 2.99152582 0 0 Z " fill="#0D253B" transform="translate(162,60)"/>
<path d="M0 0 C0.99 0 1.98 0 3 0 C2.71848913 1.31471568 2.42446661 2.62675767 2.125 3.9375 C1.96257812 4.66839844 1.80015625 5.39929688 1.6328125 6.15234375 C1 8 1 8 -1 9 C-0.67 6.03 -0.34 3.06 0 0 Z " fill="#313D4E" transform="translate(165,89)"/>
<path d="M0 0 C0.66 0 1.32 0 2 0 C2 0.66 2 1.32 2 2 C3.65 2 5.3 2 7 2 C7 2.66 7 3.32 7 4 C4.36 4 1.72 4 -1 4 C-0.67 2.68 -0.34 1.36 0 0 Z " fill="#112233" transform="translate(167,75)"/>
<path d="M0 0 C1.98 0 3.96 0 6 0 C6 0.66 6 1.32 6 2 C6.66 2.66 7.32 3.32 8 4 C5.69 4 3.38 4 1 4 C0.67 2.68 0.34 1.36 0 0 Z " fill="#132F45" transform="translate(69,55)"/>
<path d="M0 0 C0.66 0.33 1.32 0.66 2 1 C1.67 2.98 1.34 4.96 1 7 C0.01 7.33 -0.98 7.66 -2 8 C-1.125 1.125 -1.125 1.125 0 0 Z " fill="#15212F" transform="translate(68,92)"/>
<path d="M0 0 C1.65 0 3.3 0 5 0 C5.33 1.32 5.66 2.64 6 4 C3.50907189 5.24546405 2.58919267 4.7767578 0 4 C0 2.68 0 1.36 0 0 Z " fill="#303F55" transform="translate(176,93)"/>
<path d="M0 0 C2.475 0.495 2.475 0.495 5 1 C5.33 2.32 5.66 3.64 6 5 C4.35 5 2.7 5 1 5 C0.67 3.35 0.34 1.7 0 0 Z " fill="#2A3A49" transform="translate(44,89)"/>
<path d="M0 0 C3.625 0.1875 3.625 0.1875 6.625 2.1875 C0.225 3.41826923 0.225 3.41826923 -2.8125 2.25 C-3.328125 1.899375 -3.84375 1.54875 -4.375 1.1875 C-3.375 0.1875 -3.375 0.1875 0 0 Z " fill="#193145" transform="translate(126.375,51.8125)"/>
<path d="M0 0 C3.79588866 0.54226981 5.47211993 2.20127563 8 5 C7.67 5.66 7.34 6.32 7 7 C5.83040013 6.02433888 4.66438823 5.044375 3.5 4.0625 C2.8503125 3.51722656 2.200625 2.97195312 1.53125 2.41015625 C1.0259375 1.94480469 0.520625 1.47945312 0 1 C0 0.67 0 0.34 0 0 Z " fill="#B8CCD8" transform="translate(137,127)"/>
<path d="M0 0 C0.66 1.32 1.32 2.64 2 4 C1.01 4 0.02 4 -1 4 C-1.33 5.32 -1.66 6.64 -2 8 C-2.66 7.67 -3.32 7.34 -4 7 C-4 6.01 -4 5.02 -4 4 C-2.68 3.67 -1.36 3.34 0 3 C0 2.01 0 1.02 0 0 Z " fill="#1B3850" transform="translate(163,56)"/>
<path d="M0 0 C1.65 1.65 3.3 3.3 5 5 C4.01 5.33 3.02 5.66 2 6 C1.01 4.35 0.02 2.7 -1 1 C-0.67 0.67 -0.34 0.34 0 0 Z " fill="#AAC9E3" transform="translate(134,121)"/>
<path d="M0 0 C1.32 1.65 2.64 3.3 4 5 C2.02 5.99 2.02 5.99 0 7 C-0.93423645 3.98968256 -1.04449911 3.13349732 0 0 Z " fill="#8DB3C9" transform="translate(116,94)"/>
<path d="M0 0 C0.33 0 0.66 0 1 0 C1 2.64 1 5.28 1 8 C0.34 8 -0.32 8 -1 8 C-1.625 5.6875 -1.625 5.6875 -2 3 C-1.34 2.01 -0.68 1.02 0 0 Z " fill="#42515F" transform="translate(78,89)"/>
<path d="M0 0 C2.97 0.495 2.97 0.495 6 1 C6 1.99 6 2.98 6 4 C4.02 3.34 2.04 2.68 0 2 C0 1.34 0 0.68 0 0 Z " fill="#2D3F52" transform="translate(62,89)"/>
<path d="M0 0 C1.32 0.99 2.64 1.98 4 3 C3.67 3.99 3.34 4.98 3 6 C2.34 6 1.68 6 1 6 C1 5.01 1 4.02 1 3 C0.01 3.33 -0.98 3.66 -2 4 C-1.34 2.68 -0.68 1.36 0 0 Z " fill="#19354C" transform="translate(135,65)"/>
<path d="M0 0 C0.33 0 0.66 0 1 0 C1 3.63 1 7.26 1 11 C0.01 10.01 -0.98 9.02 -2 8 C-2 7.01 -2 6.02 -2 5 C-1.34 5 -0.68 5 0 5 C0 3.35 0 1.7 0 0 Z " fill="#9ABCDA" transform="translate(79,53)"/>
<path d="M0 0 C1.11375 0.556875 1.11375 0.556875 2.25 1.125 C1.92 2.445 1.59 3.765 1.25 5.125 C0.59 4.135 -0.07 3.145 -0.75 2.125 C-3.81556598 1.39156572 -3.81556598 1.39156572 -6.75 1.125 C-4.02098495 -0.69434337 -3.21400584 -1.02263822 0 0 Z " fill="#0B2237" transform="translate(160.75,53.875)"/>
<path d="M0 0 C2 1 2 1 2 1 Z " fill="#555555" transform="translate(177,98)"/>
<path d="" fill="#555555" transform="translate(0,0)"/>
<path d="" fill="#FFFFFF" transform="translate(0,0)"/>
<path d="" fill="#FFFFFF" transform="translate(0,0)"/>
<path d="" fill="#FFFFFF" transform="translate(0,0)"/>
<path d="" fill="#FFFFFF" transform="translate(0,0)"/>
<path d="" fill="#FFFFFF" transform="translate(0,0)"/>
<path d="" fill="#FFFFFF" transform="translate(0,0)"/>
</svg>
